<?xml version="1.0" encoding="UTF-8" standalone="no"?>
<svg
   xmlns:dc="http://purl.org/dc/elements/1.1/"
   xmlns:cc="http://creativecommons.org/ns#"
   xmlns:rdf="http://www.w3.org/1999/02/22-rdf-syntax-ns#"
   xmlns:svg="http://www.w3.org/2000/svg"
   xmlns="http://www.w3.org/2000/svg"
   xmlns:sodipodi="http://sodipodi.sourceforge.net/DTD/sodipodi-0.dtd"
   xmlns:inkscape="http://www.inkscape.org/namespaces/inkscape"
   height="60"
   width="60"
   id="svg32"
   version="1.1"
   y="0px"
   x="0px"
   viewBox="0 0 60 60"
   sodipodi:docname="noun_tea pot_2385619.svg"
   inkscape:version="0.92.2 5c3e80d, 2017-08-06">
  <sodipodi:namedview
     pagecolor="#ffffff"
     bordercolor="#666666"
     borderopacity="1"
     objecttolerance="10"
     gridtolerance="10"
     guidetolerance="10"
     inkscape:pageopacity="0"
     inkscape:pageshadow="2"
     inkscape:window-width="1033"
     inkscape:window-height="480"
     id="namedview18"
     showgrid="false"
     inkscape:zoom="1.3906433"
     inkscape:cx="38.071025"
     inkscape:cy="42.911145"
     inkscape:window-x="0"
     inkscape:window-y="0"
     inkscape:window-maximized="0"
     inkscape:current-layer="g26" />
  <metadata
     id="metadata38">
    <rdf:RDF>
      <cc:Work
         rdf:about="">
        <dc:format>image/svg+xml</dc:format>
        <dc:type
           rdf:resource="http://purl.org/dc/dcmitype/StillImage" />
        <dc:title></dc:title>
      </cc:Work>
    </rdf:RDF>
  </metadata>
  <defs
     id="defs36" />
  <g
     transform="translate(2.0000001e-7,-1.5206031)"
     id="g26">
    <path
       style="stroke-width:0.99999994"
       d="M 18.759766 1.4804688 A 0.987601 0.99158967 0 0 0 17.800781 2.4707031 L 17.800781 5.4453125 A 1.9752018 1.9831791 0 0 1 15.826172 7.4296875 L 13.851562 7.4296875 A 3.9504036 3.9663583 0 0 0 13.851562 15.361328 L 15.826172 15.361328 A 1.9752018 1.9831791 0 0 1 17.800781 17.345703 L 17.800781 19.328125 A 0.987601 0.99158967 0 0 0 19.777344 19.328125 L 19.777344 17.345703 A 3.9504036 3.9663583 0 0 0 15.826172 13.378906 L 13.851562 13.378906 A 1.9752018 1.9831791 0 0 1 13.851562 9.4121094 L 15.826172 9.4121094 A 3.9504036 3.9663583 0 0 0 19.777344 5.4453125 L 19.777344 2.4707031 A 0.987601 0.99158967 0 0 0 18.759766 1.4804688 z M 10.859375 18.335938 A 0.9876009 0.99158957 0 0 0 9.9003906 19.328125 L 9.9003906 20.320312 A 0.9876009 0.99158957 0 0 0 10.888672 21.310547 A 0.9876009 0.99158957 0 0 0 11.876953 20.320312 L 11.876953 19.328125 A 0.9876009 0.99158957 0 0 0 10.859375 18.335938 z M 18.759766 22.302734 A 0.987601 0.99158967 0 0 0 17.800781 23.294922 L 17.800781 25.277344 A 0.987601 0.99158967 0 0 0 19.777344 25.277344 L 19.777344 23.294922 A 0.987601 0.99158967 0 0 0 18.759766 22.302734 z M 10.859375 23.294922 A 0.9876009 0.99158957 0 0 0 9.9003906 24.285156 L 9.9003906 27.259766 A 1.9752018 1.9831791 0 0 1 7.9257812 29.244141 L 5.9511719 29.244141 A 3.9504038 3.9663585 0 0 0 5.9511719 37.175781 L 7.9257812 37.175781 A 1.9752018 1.9831791 0 0 1 9.9003906 39.160156 L 9.9003906 40.152344 A 0.9876009 0.99158957 0 0 0 11.876953 40.152344 L 11.876953 39.160156 A 3.9504036 3.9663583 0 0 0 7.9257812 35.193359 L 5.9511719 35.193359 A 1.9752018 1.9831791 0 0 1 5.9511719 31.226562 L 7.9257812 31.226562 A 3.9504036 3.9663583 0 0 0 11.876953 27.259766 L 11.876953 24.285156 A 0.9876009 0.99158957 0 0 0 10.859375 23.294922 z M 40.515625 23.294922 A 0.98760092 0.99158955 0 0 0 39.529297 24.285156 A 0.98760092 0.99158955 0 0 0 40.515625 25.277344 A 0.98760092 0.99158955 0 0 0 41.503906 24.285156 A 0.98760092 0.99158955 0 0 0 40.515625 23.294922 z M 38.541016 27.259766 A 2.9687283 2.9807182 0 0 0 35.748047 29.244141 L 45.285156 29.244141 A 2.9687283 2.9807182 0 0 0 42.492188 27.259766 L 38.541016 27.259766 z M 18.466797 30.236328 L 23.773438 40.130859 A 4.9380045 4.9579478 0 0 0 25.724609 42.113281 L 31.46875 45.318359 A 0.9876009 0.99158957 0 0 1 31.863281 45.714844 L 34.195312 50.066406 L 46.837891 50.066406 L 50.335938 43.544922 A 7.8534024 7.8851203 0 0 0 48.964844 34.173828 L 47.849609 33.054688 A 0.96192328 0.96580824 0 0 1 47.480469 32.683594 L 46.033203 31.226562 L 35 31.226562 L 32.064453 34.173828 A 7.8514272 7.8831371 0 0 0 30.427734 36.582031 A 0.9876009 0.99158957 0 0 1 29.525391 37.175781 L 27.226562 37.175781 A 3.959292 3.9752826 0 0 1 24.011719 35.515625 L 20.255859 30.236328 L 18.466797 30.236328 z M 53.625 31.228516 A 5.4495818 5.4715912 0 0 0 51.380859 31.806641 L 50.060547 32.46875 L 50.363281 32.773438 A 9.8019389 9.8415265 0 0 1 52.101562 35.109375 A 2.5447957 2.4956532 0 0 1 53.939453 34.335938 A 2.5447957 2.4956532 0 0 1 56.484375 36.832031 A 2.5447957 2.4956532 0 0 1 53.939453 39.328125 A 2.5447957 2.4956532 0 0 1 53.240234 39.230469 A 9.8019389 9.8415265 0 0 1 52.804688 42.734375 A 5.4505694 5.4725828 0 0 0 58.539062 39.542969 L 58.810547 38.933594 A 5.4821726 5.5043137 0 0 0 57.966797 33.142578 A 5.4495818 5.4715912 0 0 0 53.625 31.228516 z M 44.423828 33.210938 A 0.9876009 0.99158957 0 0 1 45.257812 33.607422 L 46.484375 35.25 A 9.7179929 9.7572414 0 0 1 48.417969 41.070312 A 9.6014559 9.6402338 0 0 1 48.34375 42.259766 A 0.9876009 0.99158957 0 0 1 47.367188 43.130859 A 0.8730392 0.87656518 0 0 1 47.242188 43.123047 A 0.9876009 0.99158957 0 0 1 46.384766 42.017578 A 7.6904482 7.721508 0 0 0 44.904297 36.445312 L 43.677734 34.796875 A 0.9876009 0.99158957 0 0 1 43.875 33.408203 A 0.9876009 0.99158957 0 0 1 44.423828 33.210938 z M 17.771484 37.177734 A 0.9876009 0.99158957 0 0 0 16.814453 38.167969 L 16.814453 40.152344 A 0.9876009 0.99158957 0 0 0 18.789062 40.152344 L 18.789062 38.167969 A 0.9876009 0.99158957 0 0 0 17.771484 37.177734 z M 46.439453 44.117188 A 0.98801264 0.99200298 0 0 1 47.330078 45.552734 L 46.837891 46.544922 A 0.9880128 0.99200314 0 1 1 45.068359 45.658203 L 45.5625 44.666016 A 0.98801264 0.99200298 0 0 1 46.439453 44.117188 z M 8.9140625 45.109375 L 8.9140625 47.091797 A 2.9499639 2.961878 0 0 0 13.537109 49.544922 A 4.8817112 4.9014272 0 0 1 12.863281 47.091797 L 12.863281 45.109375 L 8.9140625 45.109375 z M 14.837891 45.109375 L 14.837891 47.091797 A 2.9628027 2.9747687 0 0 0 20.763672 47.091797 L 20.763672 45.109375 L 14.837891 45.109375 z M 8.9140625 52.050781 A 0.9876009 0.99158957 0 0 0 7.9257812 53.042969 L 7.9257812 58 L 11.974609 58 A 4.9459053 4.9658806 0 0 1 16.814453 54.033203 L 46.441406 54.033203 A 4.9459053 4.9658806 0 0 1 51.28125 58 L 55.330078 58 L 55.330078 53.042969 A 0.9876009 0.99158957 0 0 0 54.34375 52.050781 L 8.9140625 52.050781 z "
       transform="translate(-2.0000001e-7,1.5206031)"
       id="path2" />
  </g>
</svg>
