<svg xmlns="http://www.w3.org/2000/svg" xmlns:xlink="http://www.w3.org/1999/xlink" version="1.1" x="0px" y="0px" viewBox="0 0 527 527.875" style="enable-background:new 0 0 527 422.3;" xml:space="preserve"><title>Asset 5</title><g><g><path d="M514.6,152.9h-24.7c-7.3,0-14.3,2.8-19.5,7.8l-44.6,42.6c-2.2,2.1-5.1,3.3-8.2,3.3h-20.4c-8-16.9-18.7-32.4-31.9-45.7    v-12.2h8.7c4.1,0,7.5-3.4,7.5-7.5l0,0c0-44.1-26.7-83.9-67.5-100.7c0.1-1.3,0.2-2.6,0.2-3.9c0.3-20.2-15.8-36.8-36-37.2    c-20.2-0.3-36.8,15.8-37.2,36c0,0.4,0,0.8,0,1.2c0,0.1,0,0.2,0,0.4c-45.9,14-77.2,56.2-77.3,104.2c0,4.1,3.4,7.5,7.5,7.5l0,0h6.8    v10.5c-0.4,0.3-0.8,0.6-1.2,1c-14.4,16-25.6,34.5-33.1,54.7H57.5c-10.6,0-19.2,8.6-19.2,19.2c0,0,0,0,0,0v100.6    c0,14.1,5.7,27.6,15.7,37.4H7.5c-4.1,0-7.5,3.4-7.5,7.5c0,23.6,19.2,42.8,42.8,42.8h173.2c3,0,6.1-0.3,9.1-1h150.6    c8.1,0,14.7-6.6,14.7-14.7c0-3.6-1.3-7-3.7-9.7l-10.4-11.8c-3.9-4.5-4-11.2-0.2-15.9c14.3-17.4,24.7-37.6,30.6-59.2h7.7    c9.4,0,18.1-4.9,23-13l54.1-89.9c2.3-3.8,6.4-6.2,10.8-6.4l12.8-0.6c6.6-0.3,11.8-5.7,11.8-12.3v-22.5    C527,158.4,521.4,152.9,514.6,152.9z M277.6,15c11.5,0,21,9.1,21.5,20.5c-14-3.5-28.6-4.2-42.8-2C257.8,22.9,266.9,15,277.6,15z     M272.6,47.3c48.9,0.1,89.6,37.6,93.6,86.4H179.1C183.1,84.9,223.8,47.3,272.6,47.3L272.6,47.3z M53.4,334.6V234    c0-2.3,1.9-4.2,4.2-4.2h133.8c2.3,0,4.2,1.9,4.2,4.2v100.6c0,20.6-16.7,37.4-37.4,37.4H90.7C70.1,372,53.4,355.2,53.4,334.6z     M210.5,284.1c0.6-0.1,1.3-0.2,1.9-0.2c6.7-0.2,12.3,5.1,12.5,11.8c0.2,6.7-5.1,12.3-11.8,12.5c-0.2,0-0.5,0-0.7,0    c-0.6,0-1.3-0.1-1.9-0.2V284.1z M210.5,323.1c0.6,0,1.3,0.1,1.9,0.1c15,0.3,27.4-11.6,27.7-26.6c0.3-15-11.6-27.4-26.6-27.7    c-0.3,0-0.7,0-1,0c-0.6,0-1.3,0-1.9,0.1v-9.6c0.6,0,1.3,0,1.9,0c20.3,0,36.7,16.4,36.7,36.7c0,20.3-16.4,36.7-36.7,36.7    c-0.6,0-1.3,0-1.9,0V323.1z M42.8,407.3c-12.5,0-23.4-8.3-26.8-20.3h226.9c-3.4,12-14.3,20.3-26.8,20.3L42.8,407.3z M364.5,359.8    c-8.5,10.3-8.3,25.2,0.6,35.2l10,11.3H249.4c6.2-7.6,9.5-17.1,9.5-26.9c0-4.1-3.4-7.5-7.5-7.5h-56.6c6.8-6.7,11.7-15.1,14.1-24.3    c1.2,0.1,2.4,0.1,3.6,0.1c28.6,0,51.7-23.2,51.7-51.7c0-28.6-23.2-51.7-51.7-51.7l0,0c-0.6,0-1.3,0-1.9,0.1V234    c0-10.6-8.6-19.2-19.2-19.2h-31.5c6.3-15.3,15.1-29.5,25.9-42.1c4.1-0.1,7.3-3.4,7.3-7.5v-16.6h157.3v16.6c0,3.3,2.2,6.2,5.3,7.2    c12.3,12.7,22.2,27.5,29.3,43.6c0.2,0.6,0.4,1.3,0.8,1.8c11.2,26.1,13.9,55.1,7.7,82.9l-0.1,0.4    C388.4,322.7,378.5,342.7,364.5,359.8z M512,185.3l-10.4,0.5c-9.5,0.4-18.1,5.5-23,13.7l-54.1,89.9c-2.2,3.5-6,5.7-10.1,5.7h-4.5    c4-24.7,1.7-49.9-6.6-73.5h14.3c6.9,0,13.5-2.7,18.5-7.4l44.6-42.6c2.5-2.4,5.8-3.7,9.2-3.7H512V185.3z"/></g></g><text x="0" y="437.3" fill="#000000" font-size="5px" font-weight="bold" font-family="'Helvetica Neue', Helvetica, Arial-Unicode, Arial, Sans-serif">Created by Jyoti Vyas</text><text x="0" y="442.3" fill="#000000" font-size="5px" font-weight="bold" font-family="'Helvetica Neue', Helvetica, Arial-Unicode, Arial, Sans-serif">from the Noun Project</text></svg>