<svg xmlns="http://www.w3.org/2000/svg" viewBox="0 0 60 60" height="60" width="60"><path d="M18.76 1.48a.988.992 0 0 0-.96.99v2.975a1.975 1.983 0 0 1-1.974 1.985h-1.974a3.95 3.966 0 0 0 0 7.931h1.974a1.975 1.983 0 0 1 1.975 1.985v1.982a.988.992 0 0 0 1.976 0v-1.982a3.95 3.966 0 0 0-3.95-3.967h-1.975a1.975 1.983 0 0 1 0-3.967h1.974a3.95 3.966 0 0 0 3.951-3.967V2.471a.988.992 0 0 0-1.017-.99zm-7.9 16.856a.988.992 0 0 0-.96.992v.992a.988.992 0 0 0 .989.99.988.992 0 0 0 .988-.99v-.992a.988.992 0 0 0-1.018-.992zm7.9 3.967a.988.992 0 0 0-.96.992v1.982a.988.992 0 0 0 1.977 0v-1.982a.988.992 0 0 0-1.017-.992zm-7.9.992a.988.992 0 0 0-.96.99v2.975a1.975 1.983 0 0 1-1.974 1.984H5.95a3.95 3.966 0 0 0 0 7.932h1.975A1.975 1.983 0 0 1 9.9 39.16v.992a.988.992 0 0 0 1.977 0v-.992a3.95 3.966 0 0 0-3.951-3.967H5.95a1.975 1.983 0 0 1 0-3.966h1.975a3.95 3.966 0 0 0 3.951-3.967v-2.975a.988.992 0 0 0-1.018-.99zm29.656 0a.988.992 0 0 0-.987.99.988.992 0 0 0 .987.992.988.992 0 0 0 .988-.992.988.992 0 0 0-.988-.99zM38.54 27.26a2.969 2.98 0 0 0-2.793 1.984h9.537a2.969 2.98 0 0 0-2.793-1.984h-3.951zm-20.074 2.976l5.306 9.895a4.938 4.958 0 0 0 1.952 1.982l5.744 3.205a.988.992 0 0 1 .394.397l2.332 4.351h12.643l3.498-6.521a7.853 7.885 0 0 0-1.371-9.371l-1.115-1.12a.962.966 0 0 1-.37-.37l-1.447-1.457H35l-2.936 2.947a7.851 7.883 0 0 0-1.636 2.408.988.992 0 0 1-.903.594h-2.298a3.96 3.975 0 0 1-3.215-1.66l-3.756-5.28h-1.79zm35.158.993a5.45 5.472 0 0 0-2.244.578l-1.32.662.302.304a9.802 9.842 0 0 1 1.739 2.336 2.545 2.496 0 0 1 1.837-.773 2.545 2.496 0 0 1 2.545 2.496 2.545 2.496 0 0 1-2.545 2.496 2.545 2.496 0 0 1-.699-.098 9.802 9.842 0 0 1-.435 3.504 5.45 5.473 0 0 0 5.734-3.191l.272-.61a5.482 5.504 0 0 0-.844-5.79 5.45 5.472 0 0 0-4.342-1.914zm-9.201 1.982a.988.992 0 0 1 .834.396l1.226 1.643a9.718 9.757 0 0 1 1.934 5.82 9.601 9.64 0 0 1-.074 1.19.988.992 0 0 1-.977.87.873.877 0 0 1-.125-.007.988.992 0 0 1-.857-1.105 7.69 7.722 0 0 0-1.48-5.573l-1.227-1.648a.988.992 0 0 1 .197-1.389.988.992 0 0 1 .549-.197zM17.77 37.178a.988.992 0 0 0-.957.99v1.984a.988.992 0 0 0 1.975 0v-1.984a.988.992 0 0 0-1.018-.99zm28.668 6.94a.988.992 0 0 1 .891 1.435l-.492.992a.989.993 0 1 1-1.77-.887l.495-.992a.988.992 0 0 1 .876-.549zm-37.525.991v1.983a2.95 2.962 0 0 0 4.623 2.453 4.882 4.901 0 0 1-.674-2.453v-1.983H8.914zm5.924 0v1.983a2.963 2.975 0 0 0 5.926 0v-1.983h-5.926zm-5.924 6.942a.988.992 0 0 0-.988.992V58h4.049a4.946 4.966 0 0 1 4.84-3.967H46.44A4.946 4.966 0 0 1 51.281 58h4.05v-4.957a.988.992 0 0 0-.987-.992H8.914z"/></svg>
