<svg xmlns="http://www.w3.org/2000/svg" viewBox="0 0 119.414 108.753" height="411.035" width="451.329">
  <g font-weight="400" font-size="8.599" font-family="sans-serif" letter-spacing="0" word-spacing="0" stroke-width=".265">
    <text y="24.353" x="5.017" style="line-height:1000%" transform="translate(-1.889 -1.746)">
      <tspan dx="1.512" y="24.353" x="5.017">Biggest tea drinkers</tspan>
    </text>
    <text y="13.128" x="7.64" style="line-height:1000%" transform="translate(-1.889 -1.746)">
      <tspan y="13.128" x="7.64">TOP FIVE</tspan>
    </text>
    <text y="35.624" x="6.414" style="line-height:1000%" transform="translate(-1.889 -1.746)">
      <tspan y="35.624" x="6.414">cups per day / per person</tspan>
    </text>
    <text y="53.263" x="7.216" style="line-height:1000%" transform="translate(-1.889 -1.746)">
      <tspan y="53.263" x="7.216">Turkey</tspan>
    </text>
    <text y="66.091" x="7.216" style="line-height:1000%" transform="translate(-1.889 -1.746)">
      <tspan y="66.091" x="7.216">Ireland</tspan>
    </text>
    <text y="79.32" x="7.216" style="line-height:1000%" transform="translate(-1.889 -1.746)">
      <tspan y="79.32" x="7.216">UK</tspan>
    </text>
    <text y="92.148" x="6.414" style="line-height:1000%" transform="translate(-1.889 -1.746)">
      <tspan y="92.148" x="6.414">Russia</tspan>
    </text>
    <text y="105.378" x="7.216" style="line-height:1000%" transform="translate(-1.889 -1.746)">
      <tspan y="105.378" x="7.216">Morocco</tspan>
    </text>
    <text y="52.06" x="64.943" style="line-height:1000%" transform="translate(-1.889 -1.746)">
      <tspan y="52.06" x="64.943">9,5</tspan>
    </text>
    <text y="65.69" x="79.776" style="line-height:1000%" transform="translate(-1.889 -1.746)">
      <tspan y="65.69" x="79.776">6,6</tspan>
    </text>
    <text y="80.122" x="80.578" style="line-height:1000%" transform="translate(-1.889 -1.746)">
      <tspan y="80.122" x="80.578">5,9</tspan>
    </text>
    <text y="91.747" x="82.181" style="line-height:1000%" transform="translate(-1.889 -1.746)">
      <tspan y="91.747" x="82.181">4,2</tspan>
    </text>
    <text y="101.77" x="84.987" style="line-height:1000%" transform="translate(-1.889 -1.746)">
      <tspan y="101.77" x="84.987">3,7</tspan>
    </text>
  </g>
</svg>
