<?xml version="1.0" encoding="iso-8859-1"?>
<!DOCTYPE svg PUBLIC "-//W3C//DTD SVG 1.1//EN" "http://www.w3.org/Graphics/SVG/1.1/DTD/svg11.dtd">
<svg viewBox="0 0 64 64" xmlns="http://www.w3.org/2000/svg">
    <defs>
      <style>
        <![CDATA[
        /* css rules go here */
        
        .sunglasses {}
        .thinking {display: none;}
        .heart-eyes {display: none;}
        
        @media screen and (max-width:400px){
          .sunglasses {display: none;}
          .thinking {display: block;}
        }
        
        @media screen and (max-width:300px){
          .thinking {display: none;}
          .heart-eyes {display: block;}
        }

        ]]>
    </style>
    </defs>
    
    <circle cx="32" cy="32" r="25" fill="#ffdd67"/>

    <g class="thinking">
      <g fill="#917524">
        <path d="m14.2 12c3.4-2 7.5-2.3 11.3-1 .5.2 1.3-1.7.7-1.9-4.3-1.6-9-1.2-13 1.1-.6.3.5 2.1 1 1.8"/>
        <path d="m38.2 15c3.4-2 7.5-2.3 11.3-1 .5.2 1.3-1.7.7-1.9-4.3-1.6-9-1.2-13 1.1-.6.3.5 2 1 1.8"/>
      </g>
      <path d="m24.1 34.7c5.1-1.3 10.7-.4 15 2.6 1.1.7-.9 3.5-2 2.7-2.9-1.9-7.4-3.3-12.1-2.1-1.2.3-2.2-2.8-.9-3.2" fill="#664e27"/>
      <path d="m42.8 29.1c-4.1 0-7.5-3.4-7.5-7.5 0-1.7.6-3.3 1.5-4.5 1.7-.5 3.6-.7 5.6-.7 2.4 0 4.7.4 6.7 1.1.8 1.2 1.3 2.6 1.3 4.2-.1 4.1-3.4 7.4-7.6 7.4" fill="#fff"/>
      <path d="m43.8 16.4c.4.6.7 1.3.7 2.1 0 2.1-1.7 3.8-3.8 3.8s-3.7-1.7-3.7-3.7c0-.6.1-1.1.4-1.6 1.5-.4 3.2-.6 5-.6.5 0 1 0 1.4 0" fill="#664e27"/>
      <path d="m21.2 29.1c-4.1 0-7.5-3.4-7.5-7.5 0-1.7.6-3.3 1.5-4.5 1.7-.5 3.6-.7 5.6-.7 2.4 0 4.7.4 6.7 1.1.8 1.2 1.3 2.6 1.3 4.2-.1 4.1-3.5 7.4-7.6 7.4" fill="#fff"/>
      <path d="m22.2 16.4c.4.6.7 1.3.7 2.1 0 2.1-1.7 3.8-3.8 3.8s-3.8-1.7-3.8-3.8c0-.6.1-1.1.4-1.6 1.5-.4 3.2-.6 5-.6.6.1 1 .1 1.5.1" fill="#664e27"/>
      <path d="m32.6 44c-4.2 1-14.9 2.3-16.8.3-.9-.9-.7-2.2-.4-4.5.3-2.3-1.9-4.7-3.5-4.9-1.9-.2-3 1.2-2.3 3.2 1.4 4.5-1.4 5.9-1.6 9.2-.1 1.9-.7 5.1 2.2 9.2 3.3 4.6 9 4.7 11 4.6 2.3-.1 3.3-.2 3.8-1.2.6-1.2.3-1.5.6-1.9.5-.9.8-.8 1.1-1.9.3-1.1-.5-1.8-.3-2.3.4-1.2 1.4-1 .4-3.8 3.4-.5 5.6-1 7.6-2.2 3.7-2 .5-4.3-1.8-3.8" fill="#fff"/>
      <path d="m17.5 61.7c-3.4-.6-6.2-2.3-8-4.8-2.8-3.9-2.6-7-2.4-9.1 0-.2 0-.5 0-.7.1-1.4.5-2.5 1-3.6.7-1.6 1.3-2.9.5-5.3-.4-1.2-.3-2.4.5-3.2.7-.7 1.7-1.1 2.9-.9 0 0 .1 0 .1 0 2.1.4 4.5 3.2 4.2 5.9-.3 2.2-.4 3.2.2 3.8.1.1.4.4 1.5.5 3.8.7 11.3-.4 14.4-1.1.5-.1 1.1-.1 1.7 0 1.5.3 2.6 1.2 2.9 2.3.1.7.1 2-2 3.2-2 1.1-4.1 1.7-7 2.1.8 2-1.1 2.7-.7 3.5.5 1.1.4 2-.7 3.1-.8.7.2 1.6-.6 3-.9 1.5-2.4 1.6-4.6 1.7-1.5-.1-2.7-.1-3.9-.4m-7.6-24.5c.7 3.3.9 4.5-.3 7.2-1.8 3.6-2.5 13.8 8.2 15.7 6.5 1.2 7.5-.4 7.2-2.1-.2-1.1.7-1.5 1-1.9.7-1.2-.3-1.8-.3-2.3 0-.9.9-.9 1.1-1.8.3-1.6-1.7-2.2 0-2.3 3.3-.2 5.5-.8 7.4-2.1 1.8-1.2.5-3.7-1.9-3.2-5.6 1.2-14 2.6-16.8 0-1.3-1.2-.3-2.6-.4-5.3-.2-3.6-5.9-5-5.2-1.9" fill="#cccfd4"/>
    </g>
    
    <g class="heart-eyes">
      <g fill="#f46767"><path d="m61.8 13.2c-.5-2.7-2-4.9-4.5-5.6-2.7-.7-5.1.3-7.4 2.7-1.3-3.6-3.3-6.3-6.5-7.7-3.2-1.4-6.4-.4-8.4 2.1-2.1 2.6-2.9 6.7-.7 12 2.1 5 11.4 15 11.7 15.3.4-.2 10.8-6.7 13.3-9.9 2.5-3.1 3-6.2 2.5-8.9"/><path d="m29 4.7c-2-2.5-5.2-3.5-8.4-2.1-3.2 1.4-5.2 4.1-6.5 7.7-2.4-2.3-4.8-3.4-7.5-2.6-2.4.7-4 2.9-4.5 5.6-.5 2.6.1 5.8 2.5 8.9 2.6 3.1 13 9.6 13.4 9.8.3-.3 9.6-10.3 11.7-15.3 2.2-5.3 1.4-9.3-.7-12"/></g><path d="m49 38.1c0-.8-.5-1.8-1.8-2.1-3.5-.7-8.6-1.3-15.2-1.3-6.6 0-11.7.7-15.2 1.3-1.4.3-1.8 1.3-1.8 2.1 0 7.3 5.6 14.6 17 14.6 11.4-.1 17-7.4 17-14.6" fill="#664e27"/><path d="m44.7 38.3c-2.2-.4-6.8-1-12.7-1-5.9 0-10.5.6-12.7 1-1.3.2-1.4.7-1.3 1.5.1.4.1 1 .3 1.6.1.6.3.9 1.3.8 1.9-.2 23-.2 24.9 0 1 .1 1.1-.2 1.3-.8.1-.6.2-1.1.3-1.6 0-.8-.1-1.3-1.4-1.5" fill="#fff"/>
    </g>
    
    <g class="sunglasses">
      <path d="m35.8 20.5c-2.2 1.1-5.5 1.1-7.7 0-2.3-1.2-5.2-2-8.7-2.3-3.4-.3-10.5-.3-14 1-.4.1-.8.3-1.2.5-.1.1-.2.2-.2.6v.5c0 1-.1.6.6 1 1.4.8 2.2 2.9 2.6 5.8.6 4.2 2.7 6.9 6 8.1 3.1 1.2 6.6 1.1 9.7-.1 1.7-.7 3.2-1.7 4.4-3.5 2.1-3 1.4-4.9 2.5-7.5.9-2.3 3.5-2.3 4.5 0 1.1 2.6.4 4.5 2.5 7.5 1.2 1.7 2.7 2.8 4.4 3.5 3.1 1.2 6.6 1.3 9.7.1 3.4-1.3 5.4-3.9 6-8.1.4-2.9 1.2-5 2.6-5.8.7-.4.6 0 .6-1v-.5c0-.4 0-.5-.3-.6-.4-.2-.8-.4-1.2-.5-3.6-1.3-10.7-1.3-14-1-3.5.3-6.4 1.1-8.8 2.3" fill="#494949"/><path d="m44.6 42.3c-8.1 5.7-17.1 5.6-25.2 0-1-.7-1.8.5-1.2 1.6 2.5 4 7.4 7.7 13.8 7.7s11.3-3.6 13.8-7.7c.6-1.1-.2-2.3-1.2-1.6" fill="#664e27"/>
    </g>
</svg>
